<svg xmlns="http://www.w3.org/2000/svg" viewBox="0 0 128 112">
    <path
        d="M125.8023,69.8298 C121.5423,81.6598 114.2123,81.8198 114.2123,81.8198 L105.5523,81.8198 L105.5523,81.8098 C102.5723,81.7798 100.1723,79.3298 100.1623,76.3098 L100.1623,64.1198 L92.0323,64.1198 L92.0323,75.5108 C92.0323,78.5398 89.6123,80.9898 86.6223,80.9898 L76.6923,80.9898 L76.6923,89.1298 L85.8323,89.1298 C88.8223,89.1408 91.2423,91.5898 91.2423,94.6098 L91.2423,107.5898 C91.2423,109.9098 89.3923,111.7798 87.1123,111.7798 C84.8223,111.7798 82.9723,109.9098 82.9723,107.5898 L82.9723,97.5198 L73.8523,97.5198 C70.8623,97.5198 68.4323,95.0698 68.4323,92.0398 L68.4323,78.1098 C68.4323,75.0898 70.8623,72.6298 73.8523,72.6298 L83.7923,72.6298 L83.7923,61.2398 C83.8123,58.2298 86.2123,55.7998 89.1823,55.7798 L103.0223,55.7798 C106.0123,55.7798 108.4323,58.2398 108.4323,61.2698 L108.4323,73.3798 L111.0023,73.3798 C116.5123,73.2498 118.4023,66.7198 118.4023,66.7198 C121.0923,60.1398 120.3723,52.6298 116.4823,46.6998 C112.5923,40.7698 106.0423,37.2198 99.0223,37.2198 C93.2323,37.2198 88.1523,39.8198 83.5723,44.0098 C78.6223,48.5298 74.2723,54.8698 70.2323,61.8598 C65.3323,70.3898 59.9123,76.8508 53.7123,81.2208 C47.2423,85.7608 39.5223,88.1298 31.6623,87.9998 C14.3923,88.2098 0.2123,74.1498 0.0023,56.5998 C-0.2077,39.0498 13.6323,24.6398 30.9023,24.4298 C33.4323,16.1998 38.8823,9.2298 46.1923,4.8498 L46.4123,4.6998 C54.3123,0.0498 63.7023,-1.2102 72.5123,1.1898 C81.3223,3.5898 88.8323,9.4598 93.3823,17.4998 C94.0823,18.7598 94.0723,20.2898 93.3523,21.5398 C92.6423,22.7798 91.3223,23.5398 89.9123,23.5398 C88.4923,23.5298 87.1823,22.7498 86.4823,21.4998 C82.9623,15.3798 77.2023,10.9298 70.4523,9.1098 C67.1023,8.1998 63.6023,7.9598 60.1523,8.4098 C56.7223,8.8698 53.4123,10.0098 50.4123,11.7798 L50.2023,11.8798 C45.0623,14.9498 41.1023,19.6998 38.9723,25.3598 C37.1723,32.5598 31.6523,32.5798 31.5923,32.5798 C25.4123,32.5598 19.4823,35.0598 15.1323,39.5198 C12.9523,41.7098 11.2323,44.3198 10.0623,47.1998 C7.7223,52.9998 7.7223,59.5198 10.0623,65.3298 C12.4523,71.1198 16.9823,75.7208 22.6823,78.1498 C25.5123,79.3398 28.5323,79.9398 31.5923,79.9398 C37.8423,80.0598 43.9723,78.1998 49.1323,74.6098 C54.3723,70.9298 59.0523,65.2898 63.3623,57.8398 C67.7823,50.1798 72.6323,43.1898 78.2423,38.0398 C84.2123,32.4998 91.0323,29.0898 99.0223,29.0898 C102.8223,29.0998 106.5723,29.8598 110.0723,31.3398 C117.2123,34.3198 122.8723,40.0798 125.8023,47.3298 C128.7423,54.5298 128.7423,62.6198 125.8023,69.8298"/>
</svg>
